<mxfile host="65bd71144e">
    <diagram id="5XmExO_WM_WtPcOkZqoz" name="Page-1">
        <mxGraphModel dx="832" dy="467" grid="1" gridSize="10" guides="1" tooltips="1" connect="1" arrows="1" fold="1" page="1" pageScale="1" pageWidth="850" pageHeight="1100" math="0" shadow="0">
            <root>
                <mxCell id="0"/>
                <mxCell id="1" parent="0"/>
                <mxCell id="2" value="&lt;u&gt;Workstation&lt;/u&gt;" style="verticalAlign=top;align=left;shape=cube;size=10;direction=south;fontStyle=0;html=1;boundedLbl=1;spacingLeft=5;" vertex="1" parent="1">
                    <mxGeometry x="295" y="50" width="148.57" height="140" as="geometry"/>
                </mxCell>
                <mxCell id="6" value="&lt;u&gt;Data Source&lt;/u&gt;" style="verticalAlign=top;align=left;shape=cube;size=10;direction=south;fontStyle=0;html=1;boundedLbl=1;spacingLeft=5;" vertex="1" parent="1">
                    <mxGeometry x="295" y="300" width="130" height="140" as="geometry"/>
                </mxCell>
                <mxCell id="8" value="&lt;u&gt;Application Server&lt;/u&gt;" style="verticalAlign=top;align=left;shape=cube;size=10;direction=south;fontStyle=0;html=1;boundedLbl=1;spacingLeft=5;" vertex="1" parent="1">
                    <mxGeometry x="480" y="30" width="310" height="240" as="geometry"/>
                </mxCell>
                <mxCell id="9" value="&lt;u&gt;Interface&lt;br&gt;Layer&lt;/u&gt;" style="verticalAlign=top;align=center;shape=cube;size=10;direction=south;html=1;boundedLbl=1;spacingLeft=5;" vertex="1" parent="8">
                    <mxGeometry width="100" height="80" relative="1" as="geometry">
                        <mxPoint x="20" y="50" as="offset"/>
                    </mxGeometry>
                </mxCell>
                <mxCell id="16" value="&lt;u&gt;Application&lt;br&gt;Logic&lt;/u&gt;" style="verticalAlign=top;align=center;shape=cube;size=10;direction=south;html=1;boundedLbl=1;spacingLeft=5;" vertex="1" parent="8">
                    <mxGeometry x="20.666666666666668" y="150" width="103.33333333333334" height="82.86" as="geometry"/>
                </mxCell>
                <mxCell id="17" value="&lt;u&gt;Database&lt;br&gt;Interface&lt;/u&gt;" style="verticalAlign=top;align=center;shape=cube;size=10;direction=south;html=1;boundedLbl=1;spacingLeft=5;" vertex="1" parent="8">
                    <mxGeometry x="175.66666666666669" y="150" width="103.33333333333334" height="80" as="geometry"/>
                </mxCell>
                <mxCell id="43" value="" style="rounded=0;whiteSpace=wrap;html=1;" vertex="1" parent="8">
                    <mxGeometry x="10.333333333333334" y="200" width="20.666666666666668" height="10" as="geometry"/>
                </mxCell>
                <mxCell id="38" style="edgeStyle=none;html=1;entryX=0;entryY=0.5;entryDx=0;entryDy=0;fontSize=8;" edge="1" parent="1" source="12" target="36">
                    <mxGeometry relative="1" as="geometry"/>
                </mxCell>
                <mxCell id="12" value="Actor" style="shape=umlActor;verticalLabelPosition=bottom;verticalAlign=top;html=1;outlineConnect=0;" vertex="1" parent="1">
                    <mxGeometry x="200" y="86" width="45" height="90" as="geometry"/>
                </mxCell>
                <mxCell id="14" value="&lt;u&gt;Database&lt;/u&gt;" style="verticalAlign=top;align=left;shape=cube;size=10;direction=south;fontStyle=0;html=1;boundedLbl=1;spacingLeft=5;" vertex="1" parent="1">
                    <mxGeometry x="550" y="300" width="130" height="140" as="geometry"/>
                </mxCell>
                <mxCell id="22" value="&#10;&#10;&#10;&lt;&lt;Component&gt;&gt;&#10;Mobile Application" style="shape=module;align=left;spacingLeft=20;align=center;verticalAlign=top;fontSize=8;fontStyle=1" vertex="1" parent="1">
                    <mxGeometry x="300" y="110" width="110" height="70" as="geometry"/>
                </mxCell>
                <mxCell id="21" value="" style="html=1;outlineConnect=0;whiteSpace=wrap;shape=mxgraph.archimate3.component;" vertex="1" parent="1">
                    <mxGeometry x="377" y="116" width="28" height="30" as="geometry"/>
                </mxCell>
                <mxCell id="23" value="" style="rounded=0;whiteSpace=wrap;html=1;" vertex="1" parent="1">
                    <mxGeometry x="320" y="174" width="20" height="10" as="geometry"/>
                </mxCell>
                <mxCell id="48" style="edgeStyle=none;rounded=0;html=1;entryX=1;entryY=0.5;entryDx=0;entryDy=0;fontSize=8;" edge="1" parent="1" source="24" target="47">
                    <mxGeometry relative="1" as="geometry">
                        <Array as="points">
                            <mxPoint x="520" y="385"/>
                            <mxPoint x="520" y="460"/>
                            <mxPoint x="810" y="460"/>
                            <mxPoint x="810" y="240"/>
                        </Array>
                    </mxGeometry>
                </mxCell>
                <mxCell id="24" value="&#10;&#10;&#10;&lt;&lt;Component&gt;&gt;&#10;MongoDB" style="shape=module;align=left;spacingLeft=20;align=center;verticalAlign=top;fontSize=9;fontStyle=1" vertex="1" parent="1">
                    <mxGeometry x="554" y="350" width="110" height="70" as="geometry"/>
                </mxCell>
                <mxCell id="25" value="" style="html=1;outlineConnect=0;whiteSpace=wrap;shape=mxgraph.archimate3.component;" vertex="1" parent="1">
                    <mxGeometry x="630" y="355" width="28" height="30" as="geometry"/>
                </mxCell>
                <mxCell id="44" style="edgeStyle=none;rounded=0;html=1;entryX=0;entryY=0.5;entryDx=0;entryDy=0;fontSize=8;" edge="1" parent="1" source="26" target="43">
                    <mxGeometry relative="1" as="geometry">
                        <Array as="points">
                            <mxPoint x="250" y="395"/>
                            <mxPoint x="250" y="235"/>
                        </Array>
                    </mxGeometry>
                </mxCell>
                <mxCell id="26" value="&#10;&#10;&#10;&lt;&lt;Component&gt;&gt;&#10;API/CCTV" style="shape=module;align=left;spacingLeft=20;align=center;verticalAlign=top;fontSize=9;fontStyle=1" vertex="1" parent="1">
                    <mxGeometry x="299" y="360" width="110" height="70" as="geometry"/>
                </mxCell>
                <mxCell id="39" style="edgeStyle=none;html=1;entryX=0.5;entryY=1;entryDx=0;entryDy=0;fontSize=8;rounded=0;" edge="1" parent="1" source="27" target="23">
                    <mxGeometry relative="1" as="geometry">
                        <Array as="points">
                            <mxPoint x="470" y="120"/>
                            <mxPoint x="470" y="210"/>
                            <mxPoint x="330" y="210"/>
                        </Array>
                    </mxGeometry>
                </mxCell>
                <mxCell id="27" value="" style="rounded=0;whiteSpace=wrap;html=1;" vertex="1" parent="1">
                    <mxGeometry x="500" y="114" width="20" height="10" as="geometry"/>
                </mxCell>
                <mxCell id="40" style="edgeStyle=none;rounded=0;html=1;entryX=0.5;entryY=0;entryDx=0;entryDy=0;fontSize=8;" edge="1" parent="1" source="28" target="30">
                    <mxGeometry relative="1" as="geometry"/>
                </mxCell>
                <mxCell id="28" value="" style="rounded=0;whiteSpace=wrap;html=1;" vertex="1" parent="1">
                    <mxGeometry x="542" y="154" width="20" height="10" as="geometry"/>
                </mxCell>
                <mxCell id="41" style="edgeStyle=none;rounded=0;html=1;entryX=0;entryY=0.5;entryDx=0;entryDy=0;fontSize=8;" edge="1" parent="1" source="29" target="31">
                    <mxGeometry relative="1" as="geometry">
                        <Array as="points">
                            <mxPoint x="650" y="140"/>
                            <mxPoint x="650" y="180"/>
                            <mxPoint x="620" y="180"/>
                            <mxPoint x="620" y="226"/>
                        </Array>
                    </mxGeometry>
                </mxCell>
                <mxCell id="29" value="" style="rounded=0;whiteSpace=wrap;html=1;" vertex="1" parent="1">
                    <mxGeometry x="586" y="134" width="20" height="10" as="geometry"/>
                </mxCell>
                <mxCell id="30" value="" style="rounded=0;whiteSpace=wrap;html=1;" vertex="1" parent="1">
                    <mxGeometry x="543" y="184" width="20" height="10" as="geometry"/>
                </mxCell>
                <mxCell id="31" value="" style="rounded=0;whiteSpace=wrap;html=1;" vertex="1" parent="1">
                    <mxGeometry x="652" y="221" width="20" height="10" as="geometry"/>
                </mxCell>
                <mxCell id="46" style="edgeStyle=none;rounded=0;html=1;entryX=0;entryY=0;entryDx=0;entryDy=15;entryPerimeter=0;fontSize=8;" edge="1" parent="1" source="32" target="24">
                    <mxGeometry relative="1" as="geometry">
                        <Array as="points">
                            <mxPoint x="706" y="290"/>
                            <mxPoint x="520" y="290"/>
                            <mxPoint x="520" y="365"/>
                        </Array>
                    </mxGeometry>
                </mxCell>
                <mxCell id="32" value="" style="rounded=0;whiteSpace=wrap;html=1;" vertex="1" parent="1">
                    <mxGeometry x="696" y="255" width="20" height="10" as="geometry"/>
                </mxCell>
                <mxCell id="42" style="edgeStyle=none;rounded=0;html=1;entryX=0;entryY=0;entryDx=0;entryDy=15;entryPerimeter=0;fontSize=8;" edge="1" parent="1" source="33" target="26">
                    <mxGeometry relative="1" as="geometry">
                        <Array as="points">
                            <mxPoint x="556" y="280"/>
                            <mxPoint x="270" y="280"/>
                            <mxPoint x="270" y="375"/>
                        </Array>
                    </mxGeometry>
                </mxCell>
                <mxCell id="33" value="" style="rounded=0;whiteSpace=wrap;html=1;" vertex="1" parent="1">
                    <mxGeometry x="546" y="255" width="20" height="10" as="geometry"/>
                </mxCell>
                <mxCell id="37" style="edgeStyle=none;html=1;fontSize=8;" edge="1" parent="1" source="35">
                    <mxGeometry relative="1" as="geometry">
                        <mxPoint x="240" y="125" as="targetPoint"/>
                    </mxGeometry>
                </mxCell>
                <mxCell id="35" value="" style="rounded=0;whiteSpace=wrap;html=1;" vertex="1" parent="1">
                    <mxGeometry x="300" y="120" width="20" height="10" as="geometry"/>
                </mxCell>
                <mxCell id="36" value="" style="rounded=0;whiteSpace=wrap;html=1;" vertex="1" parent="1">
                    <mxGeometry x="300" y="140" width="20" height="10" as="geometry"/>
                </mxCell>
                <mxCell id="47" value="" style="rounded=0;whiteSpace=wrap;html=1;" vertex="1" parent="1">
                    <mxGeometry x="736" y="235" width="20" height="10" as="geometry"/>
                </mxCell>
                <mxCell id="51" value="" style="html=1;outlineConnect=0;whiteSpace=wrap;shape=mxgraph.archimate3.component;" vertex="1" parent="1">
                    <mxGeometry x="375" y="365" width="28" height="30" as="geometry"/>
                </mxCell>
            </root>
        </mxGraphModel>
    </diagram>
</mxfile>